<?xml version="1.0" standalone="no"?>
<!DOCTYPE svg PUBLIC "-//W3C//DTD SVG 20010904//EN"
 "http://www.w3.org/TR/2001/REC-SVG-20010904/DTD/svg10.dtd">
<svg version="1.0" xmlns="http://www.w3.org/2000/svg"
 width="1071.000000pt" height="1071.000000pt" viewBox="0 0 1071.000000 1071.000000"
 preserveAspectRatio="xMidYMid meet">
<metadata>
Created by potrace 1.11, written by Peter Selinger 2001-2013
</metadata>
<g transform="translate(0.000000,1071.000000) scale(0.100000,-0.100000)"
fill="#000000" stroke="none">
<path d="M5018 8285 c-2 -2 -25 -6 -53 -10 -27 -4 -59 -9 -70 -10 -11 -2 -20
-4 -20 -5 0 -1 -13 -3 -28 -5 -16 -2 -61 -11 -100 -20 -40 -9 -79 -18 -87 -20
-43 -10 -195 -57 -211 -66 -11 -5 -19 -7 -19 -4 0 3 -13 -1 -30 -10 -16 -8
-33 -16 -37 -16 -65 -9 -427 -186 -560 -274 -21 -14 -45 -30 -53 -35 -150 -97
-311 -230 -471 -389 -106 -106 -158 -166 -302 -351 -21 -26 -117 -170 -117
-175 0 -2 -13 -23 -29 -47 -47 -70 -211 -407 -211 -433 0 -4 -6 -21 -14 -38
-16 -34 -75 -215 -81 -244 -2 -10 -4 -18 -5 -18 -1 0 -3 -9 -5 -20 -2 -11 -9
-40 -15 -65 -35 -140 -38 -158 -68 -400 -9 -79 -8 -482 2 -565 4 -38 9 -83 11
-100 1 -16 8 -59 14 -95 7 -36 14 -74 16 -85 2 -11 8 -40 14 -65 7 -25 14 -56
17 -70 13 -65 79 -272 109 -345 97 -234 183 -399 297 -569 23 -33 51 -73 62
-87 12 -14 28 -37 36 -49 33 -50 189 -230 270 -310 123 -123 190 -181 325
-281 66 -49 125 -93 130 -97 78 -60 482 -272 518 -272 7 0 19 -6 25 -13 7 -6
16 -12 20 -12 11 -1 55 -15 77 -25 25 -11 175 -59 201 -64 11 -2 39 -10 64
-17 55 -15 68 -18 102 -23 15 -3 37 -8 49 -11 25 -8 61 -14 109 -19 19 -2 51
-6 70 -9 97 -17 174 -21 385 -21 271 1 324 5 560 50 163 31 177 34 187 40 4 3
18 7 30 9 12 3 67 19 122 37 56 17 103 32 106 33 3 1 22 9 44 18 21 9 41 17
43 17 3 0 20 7 39 15 19 8 51 22 72 31 51 23 220 107 259 130 138 81 183 110
183 117 0 4 5 7 11 7 9 0 186 126 215 154 7 6 31 27 55 46 140 111 392 388
514 565 65 94 176 275 168 275 -3 0 0 8 8 18 8 9 34 60 58 112 23 52 49 106
56 120 40 76 155 469 170 577 4 32 10 70 20 128 3 17 8 71 11 121 4 76 1 101
-16 146 -35 93 -122 174 -223 207 -29 10 -323 13 -1285 14 l-1247 2 -40 26
c-53 35 -80 66 -101 114 -16 37 -17 135 -18 1305 l-1 1265 -23 37 c-25 40 -79
86 -127 107 -26 12 -177 25 -187 16z"/>
</g>
</svg>
